# xmcd
#
# Track frame offsets:
#	150
#	13300
#	42715
#	55387
#	74684
#	94124
#	119404
#	131357
#
# Disc length: 1961 seconds
# Revision: 0
# Processed by: cddbd v1.5.2PL0 Copyright (c) Steve Scherf et al.
# Submitted via: dBpowerAMP V12.0
#
DISCID=7907a708
DTITLE=Project R&B Revue - Pontiac Blues
DYEAR=2001
DGENRE=Blues
TTITLE0=Pontiac Blues
TTITLE1=One Brick at a Time
TTITLE2=Eye to Eye
TTITLE3=You
TTITLE4=Can't Be Satisfied
TTITLE5=Abused
TTITLE6=Buffalo Blues
TTITLE7=No Tears on my Soul
EXTD=
EXTT0=
EXTT1=
EXTT2=
EXTT3=
EXTT4=
EXTT5=
EXTT6=
EXTT7=
PLAYORDER=
